<?xml version="1.0" encoding="UTF-8"?>
<svg xmlns="http://www.w3.org/2000/svg" xmlns:xlink="http://www.w3.org/1999/xlink" width="25pt" height="25pt" viewBox="0 0 25 25" version="1.1">
<g id="surface1">
<path style=" stroke:none;fill-rule:evenodd;fill:rgb(100%,100%,100%);fill-opacity:1;" d="M 12.582031 0.492188 C 5.859375 0.492188 0.40625 5.941406 0.40625 12.664062 C 0.40625 18.042969 3.894531 22.609375 8.734375 24.21875 C 9.34375 24.332031 9.566406 23.953125 9.566406 23.632812 C 9.566406 23.34375 9.554688 22.382812 9.546875 21.367188 C 6.160156 22.101562 5.445312 19.929688 5.445312 19.929688 C 4.894531 18.523438 4.09375 18.148438 4.09375 18.148438 C 2.992188 17.390625 4.179688 17.40625 4.179688 17.40625 C 5.402344 17.492188 6.042969 18.664062 6.042969 18.664062 C 7.128906 20.523438 8.894531 19.984375 9.585938 19.675781 C 9.695312 18.886719 10.011719 18.351562 10.359375 18.046875 C 7.65625 17.738281 4.8125 16.695312 4.8125 12.027344 C 4.8125 10.699219 5.289062 9.613281 6.066406 8.761719 C 5.941406 8.453125 5.523438 7.214844 6.1875 5.539062 C 6.1875 5.539062 7.207031 5.210938 9.535156 6.789062 C 10.507812 6.519531 11.546875 6.382812 12.582031 6.378906 C 13.617188 6.382812 14.660156 6.519531 15.632812 6.789062 C 17.957031 5.210938 18.976562 5.539062 18.976562 5.539062 C 19.640625 7.214844 19.222656 8.453125 19.097656 8.761719 C 19.878906 9.613281 20.347656 10.699219 20.347656 12.027344 C 20.347656 16.707031 17.5 17.734375 14.789062 18.035156 C 15.226562 18.414062 15.617188 19.15625 15.617188 20.292969 C 15.617188 21.921875 15.601562 23.230469 15.601562 23.632812 C 15.601562 23.957031 15.820312 24.335938 16.4375 24.214844 C 21.273438 22.605469 24.757812 18.042969 24.757812 12.664062 C 24.757812 5.941406 19.304688 0.492188 12.582031 0.492188 "/>
<path style=" stroke:none;fill-rule:nonzero;fill:rgb(100%,100%,100%);fill-opacity:1;" d="M 5.019531 17.972656 C 4.992188 18.03125 4.898438 18.050781 4.808594 18.007812 C 4.722656 17.96875 4.671875 17.886719 4.699219 17.824219 C 4.726562 17.761719 4.820312 17.746094 4.910156 17.785156 C 5 17.828125 5.050781 17.910156 5.019531 17.972656 "/>
<path style=" stroke:none;fill-rule:nonzero;fill:rgb(100%,100%,100%);fill-opacity:1;" d="M 5.511719 18.519531 C 5.453125 18.574219 5.339844 18.550781 5.261719 18.464844 C 5.183594 18.378906 5.167969 18.265625 5.226562 18.210938 C 5.289062 18.15625 5.398438 18.183594 5.476562 18.269531 C 5.558594 18.355469 5.574219 18.464844 5.511719 18.519531 "/>
<path style=" stroke:none;fill-rule:nonzero;fill:rgb(100%,100%,100%);fill-opacity:1;" d="M 5.992188 19.222656 C 5.917969 19.273438 5.796875 19.226562 5.71875 19.117188 C 5.644531 19.007812 5.644531 18.878906 5.722656 18.828125 C 5.796875 18.773438 5.917969 18.820312 5.992188 18.929688 C 6.066406 19.039062 6.066406 19.167969 5.992188 19.222656 "/>
<path style=" stroke:none;fill-rule:nonzero;fill:rgb(100%,100%,100%);fill-opacity:1;" d="M 6.648438 19.898438 C 6.582031 19.972656 6.441406 19.953125 6.335938 19.851562 C 6.230469 19.753906 6.199219 19.617188 6.265625 19.542969 C 6.335938 19.46875 6.476562 19.488281 6.582031 19.589844 C 6.6875 19.6875 6.722656 19.828125 6.648438 19.898438 "/>
<path style=" stroke:none;fill-rule:nonzero;fill:rgb(100%,100%,100%);fill-opacity:1;" d="M 7.558594 20.292969 C 7.527344 20.386719 7.390625 20.429688 7.253906 20.390625 C 7.113281 20.347656 7.023438 20.238281 7.050781 20.140625 C 7.082031 20.046875 7.21875 20 7.359375 20.042969 C 7.496094 20.085938 7.585938 20.195312 7.558594 20.292969 "/>
<path style=" stroke:none;fill-rule:nonzero;fill:rgb(100%,100%,100%);fill-opacity:1;" d="M 8.554688 20.367188 C 8.558594 20.464844 8.441406 20.550781 8.296875 20.550781 C 8.148438 20.554688 8.03125 20.472656 8.03125 20.375 C 8.03125 20.273438 8.144531 20.191406 8.289062 20.1875 C 8.433594 20.183594 8.554688 20.265625 8.554688 20.367188 "/>
<path style=" stroke:none;fill-rule:nonzero;fill:rgb(100%,100%,100%);fill-opacity:1;" d="M 9.480469 20.207031 C 9.496094 20.304688 9.398438 20.40625 9.253906 20.433594 C 9.113281 20.460938 8.980469 20.398438 8.964844 20.300781 C 8.945312 20.199219 9.046875 20.101562 9.1875 20.074219 C 9.332031 20.050781 9.460938 20.109375 9.480469 20.207031 "/>
</g>
</svg>
